<?xml version="1.0" encoding="UTF-8" standalone="no"?>
<svg width="48px" height="48px" viewBox="0 0 48 48" version="1.1" xmlns="http://www.w3.org/2000/svg" xmlns:xlink="http://www.w3.org/1999/xlink">
    <!-- Generator: Sketch 43.2 (39069) - http://www.bohemiancoding.com/sketch -->
    <title>success</title>
    <desc>Created with Sketch.</desc>
    <defs></defs>
    <g id="Page-1" stroke="none" stroke-width="1" fill="none" fill-rule="evenodd">
        <g id="success" fill="#FFFFFF">
            <path d="M21.2712927,31.3656194 C21.8565108,31.4326377 22.4656599,31.241729 22.9145384,30.7928932 L32.7941579,20.9142136 C33.5752808,20.133165 33.5752808,18.866835 32.7941579,18.0857864 C32.013035,17.3047379 30.7465846,17.3047379 29.9654617,18.0857864 L21.6025103,26.4479422 L18.0973853,21.7964842 C17.4326387,20.9143358 16.1786326,20.7380967 15.2964842,21.4028432 C14.4143358,22.0675897 14.2380967,23.3215959 14.9028432,24.2037443 L19.6996476,30.5693187 C20.0868934,31.0832112 20.6741105,31.357546 21.2712927,31.3656194 Z M24,42 C14.0588745,42 6,33.9411255 6,24 C6,14.0588745 14.0588745,6 24,6 C33.9411255,6 42,14.0588745 42,24 C42,33.9411255 33.9411255,42 24,42 Z" id="Combined-Shape"></path>
        </g>
    </g>
</svg>
