<?xml version="1.0" encoding="UTF-8" standalone="no"?>
<svg width="48px" height="48px" viewBox="0 0 48 48" version="1.1" xmlns="http://www.w3.org/2000/svg" xmlns:xlink="http://www.w3.org/1999/xlink">
    <!-- Generator: Sketch 42 (36781) - http://www.bohemiancoding.com/sketch -->
    <title>cog</title>
    <desc>Created with Sketch.</desc>
    <defs></defs>
    <g id="Page-1" stroke="none" stroke-width="1" fill="none" fill-rule="evenodd">
        <g id="cog" fill="#4A9BD5">
            <path d="M37.0116004,16.5317825 C37.6456742,17.6341262 38.1436919,18.8246581 38.4827304,20.0804551 L42.0353756,20.6725626 C43.1204077,20.8534013 44,21.8853207 44,22.9979131 L44,25.0020869 C44,26.1055038 43.1146793,27.1475534 42.0353756,27.3274374 L38.4827304,27.9195449 C38.1436919,29.1753419 37.6456742,30.3658738 37.0116004,31.4682175 L39.1057899,34.4000828 C39.7451512,35.2951886 39.6374397,36.6468315 38.8507181,37.4335532 L37.4335532,38.8507181 C36.6533196,39.6309517 35.290463,39.7417758 34.4000828,39.1057899 L31.4682175,37.0116004 C30.3658738,37.6456742 29.1753419,38.1436919 27.9195449,38.4827304 L27.3274374,42.0353756 C27.1465987,43.1204077 26.1146793,44 25.0020869,44 L22.9979131,44 C21.8944962,44 20.8524466,43.1146793 20.6725626,42.0353756 L20.0804551,38.4827304 C18.8246581,38.1436919 17.6341262,37.6456742 16.5317825,37.0116004 L13.5999172,39.1057899 C12.7048114,39.7451512 11.3531685,39.6374397 10.5664468,38.8507181 L9.14928195,37.4335532 C8.36904834,36.6533196 8.25822424,35.290463 8.89421007,34.4000828 L10.9883996,31.4682175 C10.3543258,30.3658738 9.85630815,29.1753419 9.51726956,27.9195449 L5.9646244,27.3274374 C4.87959231,27.1465987 4,26.1146793 4,25.0020869 L4,22.9979131 C4,21.8944962 4.88532066,20.8524466 5.9646244,20.6725626 L9.51726956,20.0804551 C9.85630815,18.8246581 10.3543258,17.6341262 10.9883996,16.5317825 L8.89421007,13.5999172 C8.25484877,12.7048114 8.36256028,11.3531685 9.14928195,10.5664468 L10.5664468,9.14928195 C11.3466804,8.36904834 12.709537,8.25822424 13.5999172,8.89421007 L16.5317825,10.9883996 C17.6341262,10.3543258 18.8246581,9.85630815 20.0804551,9.51726956 L20.6725626,5.9646244 C20.8534013,4.87959231 21.8853207,4 22.9979131,4 L25.0020869,4 C26.1055038,4 27.1475534,4.88532066 27.3274374,5.9646244 L27.9195449,9.51726956 C29.1753419,9.85630815 30.3658738,10.3543258 31.4682175,10.9883996 L34.4000828,8.89421007 C35.2951886,8.25484877 36.6468315,8.36256028 37.4335532,9.14928195 L38.8507181,10.5664468 C39.6309517,11.3466804 39.7417758,12.709537 39.1057899,13.5999172 L37.0116004,16.5317825 L37.0116004,16.5317825 Z M24,29 C26.7614237,29 29,26.7614237 29,24 C29,21.2385763 26.7614237,19 24,19 C21.2385763,19 19,21.2385763 19,24 C19,26.7614237 21.2385763,29 24,29 Z" id="Cog"></path>
        </g>
    </g>
</svg>