<?xml version="1.0" encoding="UTF-8" standalone="no"?>
<svg width="24px" height="24px" viewBox="0 0 24 24" version="1.1" xmlns="http://www.w3.org/2000/svg" xmlns:xlink="http://www.w3.org/1999/xlink">
    <!-- Generator: Sketch 44.1 (41455) - http://www.bohemiancoding.com/sketch -->
    <title>warning</title>
    <desc>Created with Sketch.</desc>
    <defs></defs>
    <g id="Page-1" stroke="none" stroke-width="1" fill="none" fill-rule="evenodd">
        <g id="warning" fill="#FFFFFF">
            <path d="M12,2 C6.4771875,2 2,6.4771875 2,12 C2,17.5228125 6.4771875,22 12,22 C17.5228125,22 22,17.5228125 22,12 C22,6.4771875 17.5228125,2 12,2 L12,2 Z M12,20.125 C7.5128125,20.125 3.875,16.4871875 3.875,12 C3.875,7.5128125 7.5128125,3.875 12,3.875 C16.4871875,3.875 20.125,7.5128125 20.125,12 C20.125,16.4871875 16.4871875,20.125 12,20.125 Z M10.75,7.69444444 L10.75,12.1388889 C10.75,12.7525386 11.3096441,13.25 12,13.25 C12.6903559,13.25 13.25,12.7525386 13.25,12.1388889 L13.25,7.69444444 C13.25,7.08079472 12.6903559,6.58333333 12,6.58333333 C11.3096441,6.58333333 10.75,7.08079472 10.75,7.69444444 Z M10.75,15.75 C10.75,16.4403559 11.3096441,17 12,17 C12.6903559,17 13.25,16.4403559 13.25,15.75 C13.25,15.0596441 12.6903559,14.5 12,14.5 C11.3096441,14.5 10.75,15.0596441 10.75,15.75 Z" id="Combined-Shape"></path>
        </g>
    </g>
</svg>
